<svg width="100" height="100" viewBox="0 0 100 100" fill="none" xmlns="http://www.w3.org/2000/svg">
    <g clip-path="url(#clip0_2_44)">
        <g clip-path="url(#clip1_2_44)">
            <g clip-path="url(#clip2_2_44)">
                <g clip-path="url(#clip3_2_44)">
                    <g clip-path="url(#clip4_2_44)">
                        <g clip-path="url(#clip5_2_44)">
                            <g clip-path="url(#clip6_2_44)">
                                <g clip-path="url(#clip7_2_44)">
                                    <path d="M50 79.2857C66.174 79.2857 79.2857 66.174 79.2857 50C79.2857 33.8259 66.174 20.7143 50 20.7143C33.8259 20.7143 20.7143 33.8259 20.7143 50C20.7143 66.174 33.8259 79.2857 50 79.2857Z" fill="black"/>
                                </g>
                                <path d="M9.06536 36.3729L11.9896 37.3089L11.6629 38.33L2.16429 35.29L2.87001 33.085C3.11322 32.325 3.47786 31.805 3.96429 31.5243C4.45215 31.2464 5.01715 31.2104 5.65929 31.4161L8.14251 32.2107C8.79608 32.42 9.23822 32.7757 9.46858 33.2786C9.69858 33.7836 9.69036 34.4204 9.44429 35.1893L9.06536 36.3729ZM7.81572 33.2318L5.33251 32.4371C4.96179 32.3186 4.63822 32.3396 4.36215 32.5007C4.08465 32.6586 3.87893 32.9468 3.74536 33.3654L3.36643 34.5493L8.19036 36.0929L8.56893 34.9089C8.84679 34.0404 8.59572 33.4814 7.81572 33.2318Z" fill="black"/>
                                <path d="M18.0782 23.7775L18.8432 24.2864L16.3357 28.0554L8.0325 22.5311L10.4536 18.8925L11.2186 19.4014L9.39143 22.1475L12.3304 24.1029L13.8179 21.8668L14.5857 22.3779L13.0982 24.6136L16.1643 26.6539L18.0782 23.7775Z" fill="black"/>
                                <path d="M16.1396 12.8593L20.005 9.58607L20.5989 10.2875L19.0768 11.5764L24.9275 18.4861L24.1068 19.1811L18.2557 12.2714L16.7336 13.5604L16.1396 12.8593Z" fill="black"/>
                                <path d="M31.3114 10.8561L32.6471 13.6204L31.6821 14.0868L27.3425 5.10751L29.4268 4.10037C30.145 3.75322 30.7736 3.6593 31.3121 3.81822C31.8493 3.98037 32.265 4.36537 32.5582 4.97251L33.6925 7.31965C33.9911 7.93751 34.0375 8.50322 33.8321 9.01644C33.6246 9.53072 33.1571 9.96358 32.4304 10.315L31.3114 10.8561ZM32.7275 7.78644L31.5929 5.43894C31.4236 5.08822 31.1854 4.86858 30.8786 4.7793C30.5729 4.68715 30.2221 4.73644 29.8268 4.92751L28.7075 5.46858L30.9114 10.0286L32.0307 9.48787C32.8518 9.09108 33.0839 8.52394 32.7275 7.78644Z" fill="black"/>
                                <path d="M42.7893 6.76179L43.365 10.2439L42.3075 10.4189L40.6807 0.579646L42.965 0.202146C43.7522 0.0721457 44.3814 0.159289 44.8529 0.463931C45.3225 0.771431 45.6122 1.25786 45.7222 1.92286L46.0725 4.04215C46.2429 5.07286 45.9075 5.80215 45.0661 6.23L47.5293 9.55572L46.3625 9.74857L44.0157 6.55893L42.7893 6.76179ZM45.015 4.21679L44.6647 2.09786C44.6011 1.71357 44.4361 1.43536 44.1689 1.26286C43.8993 1.08857 43.5479 1.03715 43.1147 1.10857L41.8882 1.31143L42.6397 5.855L43.8661 5.65215C44.7657 5.50357 45.1486 5.025 45.015 4.21679Z" fill="black"/>
                                <path d="M59.6982 2.49437L58.9407 8.58794C58.8564 9.26651 58.5757 9.76401 58.0982 10.0804C57.6207 10.399 56.9532 10.5051 56.0954 10.3987C55.2375 10.2919 54.6129 10.0254 54.2207 9.5983C53.8307 9.17401 53.6779 8.62258 53.7625 7.94437L54.52 1.8508C54.6043 1.17223 54.885 0.674727 55.3625 0.358299C55.84 0.0397274 56.5075 -0.066344 57.3654 0.0400846C58.2232 0.14687 58.8479 0.413299 59.2397 0.840442C59.6297 1.26473 59.7825 1.81616 59.6982 2.49437ZM57.8732 8.45544L58.6307 2.36187C58.7314 1.55116 58.2739 1.08294 57.2586 0.956513C56.2454 0.830442 55.6882 1.17294 55.5875 1.9833L54.83 8.07687C54.7293 8.88758 55.1854 9.3558 56.1986 9.48187C57.2143 9.6083 57.7725 9.2658 57.8732 8.45544Z" fill="black"/>
                                <path d="M68.7171 4.37894L69.0829 3.53572L71.8964 4.75572L68.6304 12.2879C68.3707 12.8868 68.0046 13.2679 67.5329 13.4311C67.06 13.5961 66.5232 13.5482 65.9218 13.2875C65.3229 13.0279 64.9261 12.6707 64.7325 12.2168C64.5379 11.7646 64.57 11.2393 64.83 10.64L65.2268 9.72501L66.2136 10.1532L65.7929 11.1236C65.5246 11.7421 65.69 12.1814 66.2889 12.4414C66.9096 12.7107 67.3543 12.5361 67.6225 11.9171L70.5471 5.17251L68.7171 4.37894Z" fill="black"/>
                                <path d="M78.0704 19.8204L77.5029 20.5429L73.9429 17.7464L80.1036 9.90393L83.5404 12.6036L82.9725 13.3261L80.3789 11.2889L78.1986 14.0643L80.3104 15.7236L79.7407 16.4489L77.6286 14.79L75.3536 17.6861L78.0704 19.8204Z" fill="black"/>
                                <path d="M85.39 27.3775L86.0754 26.8847L86.7036 27.7575L86.0182 28.2507C85.4632 28.65 84.9114 28.7882 84.3636 28.6647C83.8136 28.5425 83.2939 28.1414 82.8043 27.4611C82.3147 26.7807 82.0968 26.1564 82.15 25.5886C82.2014 25.0222 82.505 24.5389 83.06 24.1397L88.0439 20.5529C88.5989 20.1536 89.1507 20.0154 89.6989 20.1389C90.2475 20.2589 90.7675 20.66 91.2582 21.3425C91.7479 22.0229 91.9657 22.6472 91.9125 23.215C91.8611 23.7814 91.5575 24.2647 91.0025 24.6639L89.8172 25.5168L89.1889 24.6439L90.3743 23.7907C91.0372 23.3136 91.085 22.6811 90.5179 21.8929C89.9507 21.1047 89.3354 20.9489 88.6725 21.4261L83.6882 25.0129C83.0254 25.49 82.9775 26.1225 83.5447 26.9107C84.1118 27.6989 84.7272 27.8547 85.39 27.3775Z" fill="black"/>
                                <path d="M96.2736 31.2579L97.9325 36.0432L97.0643 36.3443L96.4111 34.4597L87.8564 37.425L87.5039 36.4089L96.0586 33.4436L95.4054 31.5589L96.2736 31.2579Z" fill="black"/>
                                <path d="M5.39393 64.4561L2.40322 65.4171L2.0675 64.3729L11.7825 61.2504L12.5071 63.5054C12.7571 64.2829 12.7629 64.9332 12.5246 65.4564C12.2854 65.9771 11.8371 66.3432 11.1789 66.555L8.63929 67.3711C7.97 67.5861 7.38965 67.5532 6.89786 67.2725C6.4075 66.9886 6.03608 66.4532 5.78286 65.6664L5.39393 64.4561ZM8.30358 66.3268L10.8432 65.5104C11.2207 65.3889 11.4775 65.1793 11.6139 64.8814C11.7507 64.5854 11.7504 64.2229 11.6121 63.7932L11.2229 62.5825L6.28929 64.1682L6.67822 65.3789C6.96358 66.2675 7.50536 66.5832 8.30358 66.3268Z" fill="black"/>
                                <path d="M11.3039 80.4779L10.5214 80.9993L7.95322 77.1468L16.4439 71.4868L18.9254 75.2089L18.1429 75.7307L16.27 72.9211L13.265 74.9243L14.79 77.2121L14.0046 77.7357L12.4796 75.4479L9.34393 77.5379L11.3039 80.4779Z" fill="black"/>
                                <path d="M22.6432 79.0172L26.6004 82.3636L25.9932 83.0814L24.4347 81.7636L18.4525 88.8372L17.6122 88.1268L23.5943 81.0529L22.0361 79.735L22.6432 79.0172Z" fill="black"/>
                                <path d="M29.6157 92.2189L28.2479 95.0468L27.2604 94.5693L31.7032 85.3829L33.8354 86.4139C34.5707 86.7696 35.0454 87.2143 35.2596 87.7479C35.4718 88.2804 35.4271 88.8575 35.1264 89.4796L33.9646 91.8811C33.6586 92.5139 33.2343 92.9114 32.6918 93.0736C32.1479 93.2325 31.5043 93.1321 30.7604 92.7725L29.6157 92.2189ZM32.9771 91.4036L34.1386 89.0018C34.3111 88.6447 34.3364 88.3143 34.215 88.01C34.0954 87.7068 33.8321 87.4568 33.4261 87.2607L32.2814 86.7068L30.025 91.3725L31.1696 91.9261C32.0096 92.3325 32.6121 92.1582 32.9771 91.4036Z" fill="black"/>
                                <path d="M42.2893 95.7311L41.6989 99.2939L40.6164 99.1146L42.2854 89.0475L44.6221 89.435C45.4279 89.5686 46.0089 89.8611 46.365 90.3125C46.7186 90.7636 46.8389 91.3296 46.7257 92.0114L46.3664 94.1793C46.1918 95.2336 45.6261 95.8293 44.6693 95.9668L45.9575 100L44.7664 99.8025L43.5439 95.9389L42.2893 95.7311ZM45.2843 94L45.6436 91.8318C45.7086 91.4407 45.6393 91.1164 45.4368 90.8589C45.2364 90.6018 44.9136 90.4364 44.4682 90.3625L43.2139 90.1546L42.4432 94.8032L43.6975 95.0114C44.6182 95.1639 45.1468 94.8268 45.2843 94Z" fill="black"/>
                                <path d="M58.9989 90.9254L59.7704 97.1572C59.8564 97.8522 59.7025 98.4168 59.3089 98.8507C58.9154 99.2847 58.2789 99.5561 57.3997 99.6647C56.5229 99.7732 55.8375 99.6654 55.3429 99.3414C54.8504 99.0172 54.5614 98.5075 54.4754 97.8125L53.7039 91.5807C53.6179 90.8857 53.7718 90.3211 54.1654 89.8868C54.5589 89.4529 55.1954 89.1814 56.0747 89.0729C56.9514 88.9643 57.6368 89.0722 58.1314 89.3961C58.6239 89.7204 58.9129 90.23 58.9989 90.9254ZM58.6818 97.2918L57.9104 91.06C57.8075 90.2282 57.2364 89.8764 56.1972 90.005C55.1579 90.1336 54.6897 90.6139 54.7929 91.4457L55.5639 97.6775C55.6668 98.5093 56.2379 98.8611 57.2772 98.7325C58.3164 98.6039 58.7847 98.1236 58.6818 97.2918Z" fill="black"/>
                                <path d="M65.4025 87.6775L65.0289 86.8143L67.9089 85.5682L71.2446 93.2757C71.5107 93.8904 71.5404 94.4311 71.3339 94.8982C71.1243 95.3643 70.7121 95.73 70.0975 95.9961C69.4829 96.2621 68.9386 96.31 68.4639 96.1404C67.9907 95.9675 67.6211 95.5736 67.355 94.9593L66.9504 94.0243L67.9604 93.5871L68.3904 94.5811C68.6646 95.2154 69.1093 95.3993 69.7239 95.1332C70.3582 94.8589 70.5379 94.4043 70.2636 93.7704L67.2754 86.8668L65.4025 87.6775Z" fill="black"/>
                                <path d="M83.1668 86.2371L83.7464 86.9775L80.1007 89.8321L73.8093 81.7982L77.3314 79.04L77.9114 79.7804L75.2529 81.8621L77.4797 84.7057L79.6443 83.0104L80.2264 83.7532L78.0614 85.4486L80.385 88.4157L83.1668 86.2371Z" fill="black"/>
                                <path d="M90.4214 75.8568L89.7229 75.3521L90.365 74.4629L91.0639 74.9675C91.6318 75.3775 91.9446 75.8689 92.0029 76.4411C92.0625 77.0114 91.8407 77.645 91.3375 78.3418C90.8357 79.0368 90.3011 79.4504 89.7339 79.5825C89.1668 79.7146 88.5993 79.5757 88.0314 79.1657L82.9411 75.4889C82.3732 75.0789 82.0596 74.5886 82 74.0182C81.9418 73.4461 82.1643 72.8114 82.6675 72.1147C83.1693 71.4196 83.7039 71.0061 84.2711 70.8739C84.8382 70.7418 85.4057 70.8807 85.9736 71.2907L87.1832 72.1646L86.5411 73.0539L85.3311 72.18C84.6514 71.6893 84.0207 71.8471 83.4382 72.6536C82.8557 73.46 82.9039 74.1086 83.5836 74.5996L88.6739 78.2764C89.3536 78.7671 89.9843 78.6093 90.5668 77.8029C91.1493 76.9964 91.1011 76.3479 90.4214 75.8568Z" fill="black"/>
                                <path d="M86.6957 65.1397L88.4018 60.2461L89.2896 60.5557L88.6179 62.4829L97.3653 65.5325L97.0032 66.5718L88.2554 63.5218L87.5836 65.4489L86.6957 65.1397Z" fill="black"/>
                                <path d="M3.85464 49.7957C3.85464 49.15 4.37822 48.6264 5.02429 48.6264C5.67 48.6264 6.19357 49.15 6.19357 49.7957C6.19357 50.4414 5.67 50.965 5.02429 50.9654C4.37857 50.9654 3.855 50.4418 3.85464 49.7957Z" fill="black"/>
                                <path d="M93.6125 49.7957C93.6125 49.15 94.1361 48.6264 94.7818 48.6264C95.4275 48.6264 95.9511 49.15 95.9514 49.7957C95.9514 50.4414 95.4279 50.965 94.7818 50.9654C94.1361 50.9654 93.6125 50.4418 93.6125 49.7957Z" fill="black"/>
                            </g>
                        </g>
                    </g>
                </g>
            </g>
        </g>
    </g>
    <defs>
        <clipPath id="clip0_2_44">
            <rect width="100" height="100" fill="white"/>
        </clipPath>
        <clipPath id="clip1_2_44">
            <rect width="100" height="100" fill="white"/>
        </clipPath>
        <clipPath id="clip2_2_44">
            <rect width="100" height="100" fill="white"/>
        </clipPath>
        <clipPath id="clip3_2_44">
            <rect width="100" height="100" fill="white"/>
        </clipPath>
        <clipPath id="clip4_2_44">
            <rect width="100" height="100" fill="white"/>
        </clipPath>
        <clipPath id="clip5_2_44">
            <rect width="100" height="100" fill="white"/>
        </clipPath>
        <clipPath id="clip6_2_44">
            <rect width="100" height="100" fill="white"/>
        </clipPath>
        <clipPath id="clip7_2_44">
            <rect width="58.9256" height="58.9256" fill="white" transform="translate(20.5372 20.5372)"/>
        </clipPath>
    </defs>
</svg>
